<svg width="230" height="140" viewBox="0 0 230 140" fill="none" xmlns="http://www.w3.org/2000/svg">
<path d="M87.7931 16.0398C97.3944 16.0398 105.178 23.8455 105.178 33.4744V41.6687H64.4975C54.8962 41.6687 47.1128 33.8629 47.1128 24.2341V16.0398H87.7931Z" fill="url(#paint0_linear_10_1271)"/>
<path d="M14.9509 126.575H218.526C224.863 126.575 230 131.727 230 138.082H26.4249C20.088 138.082 14.9509 132.93 14.9509 126.575Z" fill="url(#paint1_linear_10_1271)"/>
<path fill-rule="evenodd" clip-rule="evenodd" d="M114.289 8.68542C114.712 8.68542 115.055 8.3413 115.055 7.91681C115.055 7.49231 114.712 7.14819 114.289 7.14819C113.866 7.14819 113.522 7.49231 113.522 7.91681C113.522 8.3413 113.866 8.68542 114.289 8.68542ZM115.055 10.9913C115.055 11.4158 114.712 11.7599 114.289 11.7599C113.866 11.7599 113.522 11.4158 113.522 10.9913C113.522 10.5668 113.866 10.2226 114.289 10.2226C114.712 10.2226 115.055 10.5668 115.055 10.9913ZM114.289 14.8343C114.712 14.8343 115.055 14.4902 115.055 14.0657C115.055 13.6412 114.712 13.2971 114.289 13.2971C113.866 13.2971 113.522 13.6412 113.522 14.0657C113.522 14.4902 113.866 14.8343 114.289 14.8343ZM115.055 17.1402C115.055 17.5647 114.712 17.9088 114.289 17.9088C113.866 17.9088 113.522 17.5647 113.522 17.1402C113.522 16.7157 113.866 16.3715 114.289 16.3715C114.712 16.3715 115.055 16.7157 115.055 17.1402ZM114.289 20.9832C114.712 20.9832 115.055 20.6391 115.055 20.2146C115.055 19.7901 114.712 19.446 114.289 19.446C113.866 19.446 113.522 19.7901 113.522 20.2146C113.522 20.6391 113.866 20.9832 114.289 20.9832ZM114.289 24.0577C114.712 24.0577 115.055 23.7136 115.055 23.2891C115.055 22.8646 114.712 22.5204 114.289 22.5204C113.866 22.5204 113.522 22.8646 113.522 23.2891C113.522 23.7136 113.866 24.0577 114.289 24.0577ZM118.121 23.2891C118.121 23.7136 117.778 24.0577 117.355 24.0577C116.931 24.0577 116.588 23.7136 116.588 23.2891C116.588 22.8646 116.931 22.5204 117.355 22.5204C117.778 22.5204 118.121 22.8646 118.121 23.2891ZM117.355 20.9832C117.778 20.9832 118.121 20.6391 118.121 20.2146C118.121 19.7901 117.778 19.446 117.355 19.446C116.931 19.446 116.588 19.7901 116.588 20.2146C116.588 20.6391 116.931 20.9832 117.355 20.9832ZM118.121 17.1402C118.121 17.5647 117.778 17.9088 117.355 17.9088C116.931 17.9088 116.588 17.5647 116.588 17.1402C116.588 16.7157 116.931 16.3715 117.355 16.3715C117.778 16.3715 118.121 16.7157 118.121 17.1402ZM117.355 14.8343C117.778 14.8343 118.121 14.4902 118.121 14.0657C118.121 13.6412 117.778 13.2971 117.355 13.2971C116.931 13.2971 116.588 13.6412 116.588 14.0657C116.588 14.4902 116.931 14.8343 117.355 14.8343ZM118.121 10.9913C118.121 11.4158 117.778 11.7599 117.355 11.7599C116.931 11.7599 116.588 11.4158 116.588 10.9913C116.588 10.5668 116.931 10.2226 117.355 10.2226C117.778 10.2226 118.121 10.5668 118.121 10.9913ZM117.355 8.68542C117.778 8.68542 118.121 8.3413 118.121 7.91681C118.121 7.49231 117.778 7.14819 117.355 7.14819C116.931 7.14819 116.588 7.49231 116.588 7.91681C116.588 8.3413 116.931 8.68542 117.355 8.68542ZM121.187 23.2891C121.187 23.7136 120.844 24.0577 120.421 24.0577C119.997 24.0577 119.654 23.7136 119.654 23.2891C119.654 22.8646 119.997 22.5204 120.421 22.5204C120.844 22.5204 121.187 22.8646 121.187 23.2891ZM120.421 20.9832C120.844 20.9832 121.187 20.6391 121.187 20.2146C121.187 19.7901 120.844 19.446 120.421 19.446C119.997 19.446 119.654 19.7901 119.654 20.2146C119.654 20.6391 119.997 20.9832 120.421 20.9832ZM121.187 17.1402C121.187 17.5647 120.844 17.9088 120.421 17.9088C119.997 17.9088 119.654 17.5647 119.654 17.1402C119.654 16.7157 119.997 16.3715 120.421 16.3715C120.844 16.3715 121.187 16.7157 121.187 17.1402ZM120.421 14.8343C120.844 14.8343 121.187 14.4902 121.187 14.0657C121.187 13.6412 120.844 13.2971 120.421 13.2971C119.997 13.2971 119.654 13.6412 119.654 14.0657C119.654 14.4902 119.997 14.8343 120.421 14.8343ZM121.187 10.9913C121.187 11.4158 120.844 11.7599 120.421 11.7599C119.997 11.7599 119.654 11.4158 119.654 10.9913C119.654 10.5668 119.997 10.2226 120.421 10.2226C120.844 10.2226 121.187 10.5668 121.187 10.9913ZM120.421 8.68542C120.844 8.68542 121.187 8.3413 121.187 7.91681C121.187 7.49231 120.844 7.14819 120.421 7.14819C119.997 7.14819 119.654 7.49231 119.654 7.91681C119.654 8.3413 119.997 8.68542 120.421 8.68542ZM124.253 23.2891C124.253 23.7136 123.91 24.0577 123.486 24.0577C123.063 24.0577 122.72 23.7136 122.72 23.2891C122.72 22.8646 123.063 22.5204 123.486 22.5204C123.91 22.5204 124.253 22.8646 124.253 23.2891ZM123.486 20.9832C123.91 20.9832 124.253 20.6391 124.253 20.2146C124.253 19.7901 123.91 19.446 123.486 19.446C123.063 19.446 122.72 19.7901 122.72 20.2146C122.72 20.6391 123.063 20.9832 123.486 20.9832ZM124.253 17.1402C124.253 17.5647 123.91 17.9088 123.486 17.9088C123.063 17.9088 122.72 17.5647 122.72 17.1402C122.72 16.7157 123.063 16.3715 123.486 16.3715C123.91 16.3715 124.253 16.7157 124.253 17.1402ZM123.486 14.8343C123.91 14.8343 124.253 14.4902 124.253 14.0657C124.253 13.6412 123.91 13.2971 123.486 13.2971C123.063 13.2971 122.72 13.6412 122.72 14.0657C122.72 14.4902 123.063 14.8343 123.486 14.8343ZM124.253 10.9913C124.253 11.4158 123.91 11.7599 123.486 11.7599C123.063 11.7599 122.72 11.4158 122.72 10.9913C122.72 10.5668 123.063 10.2226 123.486 10.2226C123.91 10.2226 124.253 10.5668 124.253 10.9913ZM123.486 8.68542C123.91 8.68542 124.253 8.3413 124.253 7.91681C124.253 7.49231 123.91 7.14819 123.486 7.14819C123.063 7.14819 122.72 7.49231 122.72 7.91681C122.72 8.3413 123.063 8.68542 123.486 8.68542ZM127.319 23.2891C127.319 23.7136 126.976 24.0577 126.552 24.0577C126.129 24.0577 125.786 23.7136 125.786 23.2891C125.786 22.8646 126.129 22.5204 126.552 22.5204C126.976 22.5204 127.319 22.8646 127.319 23.2891ZM126.552 20.9832C126.976 20.9832 127.319 20.6391 127.319 20.2146C127.319 19.7901 126.976 19.446 126.552 19.446C126.129 19.446 125.786 19.7901 125.786 20.2146C125.786 20.6391 126.129 20.9832 126.552 20.9832ZM127.319 17.1402C127.319 17.5647 126.976 17.9088 126.552 17.9088C126.129 17.9088 125.786 17.5647 125.786 17.1402C125.786 16.7157 126.129 16.3715 126.552 16.3715C126.976 16.3715 127.319 16.7157 127.319 17.1402ZM126.552 14.8343C126.976 14.8343 127.319 14.4902 127.319 14.0657C127.319 13.6412 126.976 13.2971 126.552 13.2971C126.129 13.2971 125.786 13.6412 125.786 14.0657C125.786 14.4902 126.129 14.8343 126.552 14.8343ZM127.319 10.9913C127.319 11.4158 126.976 11.7599 126.552 11.7599C126.129 11.7599 125.786 11.4158 125.786 10.9913C125.786 10.5668 126.129 10.2226 126.552 10.2226C126.976 10.2226 127.319 10.5668 127.319 10.9913ZM126.552 8.68542C126.976 8.68542 127.319 8.3413 127.319 7.91681C127.319 7.49231 126.976 7.14819 126.552 7.14819C126.129 7.14819 125.786 7.49231 125.786 7.91681C125.786 8.3413 126.129 8.68542 126.552 8.68542ZM130.385 23.2891C130.385 23.7136 130.041 24.0577 129.618 24.0577C129.195 24.0577 128.852 23.7136 128.852 23.2891C128.852 22.8646 129.195 22.5204 129.618 22.5204C130.041 22.5204 130.385 22.8646 130.385 23.2891ZM129.618 20.9832C130.041 20.9832 130.385 20.6391 130.385 20.2146C130.385 19.7901 130.041 19.446 129.618 19.446C129.195 19.446 128.852 19.7901 128.852 20.2146C128.852 20.6391 129.195 20.9832 129.618 20.9832ZM130.385 17.1402C130.385 17.5647 130.041 17.9088 129.618 17.9088C129.195 17.9088 128.852 17.5647 128.852 17.1402C128.852 16.7157 129.195 16.3715 129.618 16.3715C130.041 16.3715 130.385 16.7157 130.385 17.1402ZM129.618 14.8343C130.041 14.8343 130.385 14.4902 130.385 14.0657C130.385 13.6412 130.041 13.2971 129.618 13.2971C129.195 13.2971 128.852 13.6412 128.852 14.0657C128.852 14.4902 129.195 14.8343 129.618 14.8343ZM130.385 10.9913C130.385 11.4158 130.041 11.7599 129.618 11.7599C129.195 11.7599 128.852 11.4158 128.852 10.9913C128.852 10.5668 129.195 10.2226 129.618 10.2226C130.041 10.2226 130.385 10.5668 130.385 10.9913ZM129.618 8.68542C130.041 8.68542 130.385 8.3413 130.385 7.91681C130.385 7.49231 130.041 7.14819 129.618 7.14819C129.195 7.14819 128.852 7.49231 128.852 7.91681C128.852 8.3413 129.195 8.68542 129.618 8.68542Z" fill="url(#paint2_linear_10_1271)"/>
<path d="M52.1542 32.8075C42.3699 37.2392 34.5476 37.183 28.6871 32.6391C22.8267 28.0952 19.1172 21.6248 17.5586 13.2279C35.8772 7.71106 47.4091 14.2376 52.1542 32.8075Z" fill="url(#paint3_linear_10_1271)"/>
<path d="M37.7073 24.8392C35.5955 23.6378 33.2474 22.3064 30.6628 20.8452L24.6676 22.2849C24.5613 22.3104 24.4545 22.2443 24.4291 22.1373C24.4037 22.0302 24.4694 21.9228 24.5757 21.8972L30.1542 20.5576C26.9285 18.7344 23.3433 16.7137 19.3986 14.4953C19.3031 14.4416 19.269 14.3202 19.3223 14.2242C19.3756 14.1281 19.4963 14.0937 19.5917 14.1474C26.7943 18.1979 32.7984 21.5896 37.6043 24.3229L36.9842 18.2063C36.9574 17.942 37.3513 17.9016 37.3781 18.1659L38.0267 24.5632C44.4342 28.2092 48.6478 30.6494 50.6682 31.8845C50.7617 31.9416 50.7914 32.0642 50.7347 32.1582C50.6779 32.2523 50.5562 32.2822 50.4627 32.2251C49.2537 31.4861 47.2564 30.3138 44.4708 28.7083C44.4635 28.7121 44.4558 28.7155 44.4479 28.7184L38.969 30.7322C38.8663 30.7699 38.7526 30.7167 38.7151 30.6133C38.6776 30.51 38.7305 30.3956 38.8332 30.3578L44.0229 28.4503C42.2424 27.4255 40.1583 26.2338 37.7706 24.8753C37.7476 24.8675 37.726 24.8556 37.7073 24.8392Z" fill="white"/>
<path d="M49.9632 38.3562C39.9056 34.5348 34.3987 28.943 33.4427 21.5806C32.4867 14.2182 34.4121 7.02466 39.219 0C56.0918 9.11417 59.6732 21.8996 49.9632 38.3562Z" fill="url(#paint4_linear_10_1271)"/>
<path d="M45.8198 22.5437C47.7844 29.6806 49.0464 34.4039 49.606 36.7148C49.6319 36.8216 49.567 36.9295 49.4611 36.9556C49.3551 36.9817 49.2482 36.9162 49.2223 36.8093C48.8874 35.4266 48.3001 33.1766 47.4604 30.0595C47.4525 30.057 47.4448 30.0539 47.4371 30.0503L42.1607 27.5756C42.0618 27.5292 42.0189 27.4107 42.0649 27.3109C42.1109 27.2111 42.2283 27.1679 42.3273 27.2143L47.3252 29.5584C46.7875 27.567 46.1526 25.2416 45.4204 22.5822C45.4096 22.5603 45.4027 22.5365 45.401 22.5117C44.7534 20.1596 44.0301 17.5476 43.2311 14.6755L37.9928 11.4274C37.8999 11.3698 37.8708 11.2471 37.928 11.1534C37.9851 11.0597 38.1067 11.0304 38.1997 11.088L43.0738 14.1102C42.0762 10.5261 40.9634 6.54642 39.7355 2.17126C39.7058 2.0654 39.7668 1.95528 39.8718 1.92531C39.9767 1.89534 40.0859 1.95687 40.1156 2.06274C42.3576 10.0513 44.2158 16.7214 45.6903 22.0733L49.5399 17.3078C49.7063 17.1019 50.0125 17.3536 49.8461 17.5595L45.8198 22.5437Z" fill="white"/>
<path d="M59.9774 45.2538C51.6716 52.0878 44.107 54.0733 37.2836 51.2104C30.4601 48.3475 25.218 43.0621 21.5571 35.3541C37.8216 25.2461 50.6284 28.546 59.9774 45.2538Z" fill="url(#paint5_linear_10_1271)"/>
<path d="M44.1868 40.8174C51.3085 42.6647 56.0027 43.9206 58.2703 44.5853C58.3752 44.6161 58.4354 44.7264 58.4048 44.8317C58.3742 44.9371 58.2644 44.9975 58.1595 44.9668C56.8026 44.569 54.5734 43.9587 51.4721 43.1359C51.466 43.1415 51.4594 43.1467 51.4525 43.1516L46.6816 46.5143C46.5921 46.5773 46.4688 46.5556 46.406 46.4658C46.3432 46.376 46.3648 46.2521 46.4543 46.189L50.9734 43.0038C48.9915 42.4792 46.6736 41.8728 44.0198 41.1845C43.9956 41.183 43.9716 41.1771 43.9494 41.1662C41.6023 40.5576 38.9936 39.8852 36.1234 39.1491L30.7065 42.093C30.6104 42.1452 30.4903 42.1093 30.4383 42.0128C30.3863 41.9163 30.4221 41.7957 30.5182 41.7435L35.5585 39.0042C31.9764 38.0861 27.9965 37.071 23.6189 35.959C23.5129 35.9321 23.4488 35.8241 23.4756 35.7177C23.5024 35.6113 23.61 35.5469 23.7159 35.5738C31.709 37.6042 38.376 39.3114 43.7173 40.6957L41.5469 34.9656C41.4531 34.7179 41.823 34.5767 41.9168 34.8243L44.1868 40.8174Z" fill="white"/>
<path d="M50.5895 25.6289H197.838C199.758 25.6289 201.315 27.1901 201.315 29.1158V134.77C201.315 136.695 199.758 138.257 197.838 138.257H50.5895C48.6692 138.257 47.1125 136.695 47.1125 134.77V29.1158C47.1125 27.1901 48.6692 25.6289 50.5895 25.6289Z" fill="url(#paint6_linear_10_1271)"/>
<path fill-rule="evenodd" clip-rule="evenodd" d="M71.2772 46.8992H55.4571C55.0731 46.8992 54.7617 47.2114 54.7617 47.5966V61.1956C54.7617 61.5807 55.0731 61.8929 55.4571 61.8929H71.2772C71.6613 61.8929 71.9726 61.5807 71.9726 61.1956V47.5966C71.9726 47.2114 71.6613 46.8992 71.2772 46.8992ZM71.2772 68.8668H55.4571C55.0731 68.8668 54.7617 69.179 54.7617 69.5642V83.1632C54.7617 83.5483 55.0731 83.8606 55.4571 83.8606H71.2772C71.6613 83.8606 71.9726 83.5483 71.9726 83.1632V69.5642C71.9726 69.179 71.6613 68.8668 71.2772 68.8668ZM55.4571 90.8344H71.2772C71.6613 90.8344 71.9726 91.1466 71.9726 91.5318V105.131C71.9726 105.516 71.6613 105.828 71.2772 105.828H55.4571C55.0731 105.828 54.7617 105.516 54.7617 105.131V91.5318C54.7617 91.1466 55.0731 90.8344 55.4571 90.8344ZM71.2772 112.802H55.4571C55.0731 112.802 54.7617 113.114 54.7617 113.499V127.098C54.7617 127.484 55.0731 127.796 55.4571 127.796H71.2772C71.6613 127.796 71.9726 127.484 71.9726 127.098V113.499C71.9726 113.114 71.6613 112.802 71.2772 112.802Z" fill="url(#paint7_linear_10_1271)"/>
<path d="M79.6219 46.8992H194.164C194.548 46.8992 194.859 47.2114 194.859 47.5966V127.224C194.859 127.609 194.548 127.921 194.164 127.921H79.6219C79.2379 127.921 78.9265 127.609 78.9265 127.224V47.5966C78.9265 47.2114 79.2379 46.8992 79.6219 46.8992Z" fill="white"/>
<path fill-rule="evenodd" clip-rule="evenodd" d="M84.1421 52.1296H114.044V57.36H84.1421V52.1296ZM84.1421 62.5904H195.752V67.8208H84.1421V62.5904ZM176.629 73.0512H84.1421V78.2816H176.629V73.0512ZM84.1421 83.512H195.752V88.7423H84.1421V83.512ZM187.06 93.9727H84.1421V99.2031H187.06V93.9727ZM84.1421 104.433H195.752V109.664H84.1421V104.433ZM136.372 114.894H84.1421V120.125H136.372V114.894Z" fill="#D0F6FF"/>
<path fill-rule="evenodd" clip-rule="evenodd" d="M150.737 102.987L153.4 107.082C152.671 108.361 152.096 109.739 151.701 111.192L146.932 112.199C146.61 112.267 146.379 112.552 146.379 112.881V118.824C146.379 119.154 146.61 119.439 146.932 119.507L151.701 120.514C152.096 121.967 152.671 123.345 153.4 124.624L150.737 128.719C150.557 128.996 150.595 129.36 150.827 129.593L155.018 133.796C155.25 134.029 155.614 134.067 155.889 133.887L159.973 131.216C161.248 131.947 162.622 132.523 164.071 132.919L165.075 137.703C165.143 138.025 165.427 138.256 165.756 138.256H171.682C172.011 138.256 172.295 138.025 172.362 137.703L173.366 132.919C174.815 132.523 176.19 131.947 177.464 131.216L181.548 133.887C181.824 134.067 182.187 134.029 182.42 133.796L187.009 129.193L184.038 124.624C184.767 123.345 185.342 121.967 185.736 120.514L190.506 119.507C190.828 119.439 191.058 119.154 191.058 118.824V112.881C191.058 112.552 190.828 112.267 190.506 112.199L185.736 111.192C185.342 109.739 184.767 108.361 184.038 107.082L186.701 102.987C186.881 102.71 186.843 102.346 186.61 102.112L182.42 97.9101C182.187 97.6769 181.824 97.6389 181.548 97.8191L177.464 100.49C176.19 99.7589 174.815 99.1824 173.366 98.7866L172.362 94.0032C172.295 93.6805 172.011 93.4495 171.682 93.4495H165.756C165.427 93.4495 165.143 93.6805 165.075 94.0032L164.071 98.7866C162.622 99.1824 161.248 99.7589 159.973 100.49L155.889 97.8191C155.614 97.6389 155.25 97.6769 155.018 97.9101L150.827 102.112C150.595 102.346 150.557 102.71 150.737 102.987ZM176.977 115.853C176.977 120.427 173.279 124.134 168.719 124.134C164.158 124.134 160.461 120.427 160.461 115.853C160.461 111.279 164.158 107.572 168.719 107.572C173.279 107.572 176.977 111.279 176.977 115.853Z" fill="url(#paint8_linear_10_1271)"/>
<path d="M50.5895 25.6289H197.838C199.758 25.6289 201.315 27.1901 201.315 29.1158V40.0826H47.1125L47.1125 29.1158C47.1125 27.1901 48.6692 25.6289 50.5895 25.6289Z" fill="url(#paint9_linear_10_1271)"/>
<path d="M44.2476 77.2795H98.3072C99.6053 77.2795 100.658 78.34 100.658 79.6482V114.389C100.658 115.697 99.6053 116.757 98.3072 116.757H44.2476C42.9495 116.757 41.8972 115.697 41.8972 114.389V79.6482C41.8972 78.34 42.9495 77.2795 44.2476 77.2795Z" fill="url(#paint10_linear_10_1271)"/>
<path d="M71.2773 95.4395L98.3071 116.758H44.2476L71.2773 95.4395Z" fill="url(#paint11_linear_10_1271)"/>
<path d="M44.2476 77.2795L98.3071 77.2795L71.2773 101.181L44.2476 77.2795Z" fill="#52D7FD"/>
<path d="M41.8973 84.1937V88.0657L33.1962 83.5606L28.511 71.5603L35.7836 69.606L38.8452 81.814L41.8973 84.1937Z" fill="#221E41"/>
<path d="M34.7042 69.4225L30.3582 66.017L31.6575 64.3491C31.8525 62.0376 33.2198 59.6868 35.7596 57.2966C38.2993 54.9065 41.0088 55.8598 43.8882 60.1565C42.771 61.8088 42.409 63.1215 42.8024 64.0946C43.3924 65.5543 42.6403 65.8961 42.1241 65.782C41.608 65.6679 41.1253 65.7833 40.5288 66.7817C39.9324 67.7801 39.2384 67.5265 38.0959 67.2103C37.3342 66.9995 36.2036 67.7369 34.7042 69.4225Z" fill="#F4B696"/>
<path d="M30.1325 130.468L33.8833 130.731L33.6212 134.491L29.8704 134.228L30.1325 130.468Z" fill="#F4B696"/>
<path d="M29.7448 133.937L33.6844 134.213L36.1218 135.223C37.3481 135.758 38.3946 136.015 38.297 137.414C38.2719 137.773 38.0141 138.048 37.7212 138.027L30.3322 137.509C29.8725 137.477 29.5258 137.077 29.558 136.616L29.7448 133.937Z" fill="url(#paint12_linear_10_1271)"/>
<path d="M4.13352 129.451L7.17539 131.667L4.96667 134.716L1.9248 132.499L4.13352 129.451Z" fill="#F4B696"/>
<path d="M1.97207 132.186L5.16705 134.514L6.70013 136.666C7.45753 137.771 8.20938 138.545 7.38729 139.68C7.17611 139.971 6.81232 140.067 6.57475 139.894L0.58232 135.528C0.209474 135.256 0.126821 134.733 0.397709 134.359L1.97207 132.186Z" fill="url(#paint13_linear_10_1271)"/>
<path d="M31.6262 64.2679C31.2984 63.8669 31.2088 63.4645 31.3573 63.0608C31.5801 62.4551 32.0468 62.3847 31.619 60.6261C31.1912 58.8676 31.1866 56.8684 33.3754 54.6617C35.5641 52.4551 37.2452 53.1462 38.8765 53.9142C40.5077 54.6823 41.034 55.2298 43.5744 55.7674C46.1148 56.305 46.3864 58.3223 44.6926 60.1798C42.9988 62.0374 39.8337 60.0953 39.3153 59.689C38.7968 59.2828 38.5854 60.2944 38.1378 61.2006C37.6901 62.1068 37.0242 61.9721 36.892 61.7303C36.7598 61.4885 36.4106 61.0929 35.739 61.3451C35.0675 61.5972 35.0088 62.5865 35.2936 62.8097C35.5784 63.0328 36.0425 63.1826 35.8523 63.5446C35.6621 63.9066 34.8454 64.8857 34.1505 65.2494C33.6873 65.4919 32.8458 65.1647 31.6262 64.2679Z" fill="url(#paint14_linear_10_1271)"/>
<path d="M24.2373 104.283L20.2463 117.663C20.0902 118.186 19.8201 118.669 19.4557 119.075L6.43371 133.596L2.69238 131.086L12.7221 113.828V95.103L23.5419 96.8906L24.2373 104.283Z" fill="#241F4A"/>
<path d="M12.6436 95.103L27.1753 96.3932L37.7963 107.423C38.6332 108.292 38.9937 109.517 38.7617 110.702L34.4217 132.883L29.4746 132.57L30.3933 112.214L17.8127 107.005C14.6844 105.71 12.6436 102.651 12.6436 99.2566V95.103Z" fill="url(#paint15_linear_10_1271)"/>
<path d="M12.6436 95.1031C17.9993 81.7167 21.1057 73.7774 21.9626 71.2853C23.2481 67.5471 27.7187 64.0081 32.8422 66.3397C37.9658 68.6713 36.9876 75.9293 35.0343 81.4729C33.7321 85.1686 31.2205 90.3138 27.4994 96.9085L12.6436 95.1031Z" fill="#00ADFF"/>
<path d="M29.4746 93.3489L25.2695 76.7733L29.9017 75.2571L32.101 88.3155L29.4746 93.3489Z" fill="#221E41"/>
<path d="M33.6765 75.6399L35.6451 86.4591L47.9269 96.5719L50.1211 97.5213L48.4689 97.9653L49.4373 101.59C47.4665 101.744 46.1108 101.368 45.3702 100.459C44.6295 99.5508 44.0199 98.0784 43.5412 96.0419L29.9961 88.2057L26.4038 77.5942L33.6765 75.6399Z" fill="#F4B696"/>
<path d="M34.0454 73.103L35.4321 81.8866L28.0646 84.326L24.4583 75.2546" fill="#00ADFF"/>
<path fill-rule="evenodd" clip-rule="evenodd" d="M18.4691 98.1211L18.3105 98.1926L18.8095 99.3057L18.9681 99.2342L18.4691 98.1211ZM19.6809 100.824L19.5224 100.896L19.8141 101.547C19.8851 101.705 19.9674 101.858 20.0603 102.004L20.2069 101.91C20.1185 101.771 20.0402 101.626 19.9726 101.475L19.6809 100.824ZM21.3544 103.217L21.4394 103.065L22.5011 103.661L22.4161 103.813L21.3544 103.217ZM24.0177 104.514L23.9328 104.666L24.9944 105.262L25.0794 105.11L24.0177 104.514ZM26.5111 106.114L26.5961 105.962L27.6577 106.559L27.5728 106.711L26.5111 106.114ZM29.1744 107.411L29.0894 107.563L30.1511 108.159L30.2361 108.007L29.1744 107.411ZM31.6678 109.012L31.7527 108.859L32.8144 109.456L32.7294 109.608L31.6678 109.012ZM34.1172 110.651L33.9717 110.747C34.1899 111.081 34.348 111.452 34.4382 111.841L34.6075 111.802C34.5127 111.392 34.3465 111.003 34.1172 110.651ZM34.4373 113.547L34.6099 113.568L34.4634 114.78L34.2908 114.759L34.4373 113.547ZM34.2541 116.51L34.0816 116.489L33.9351 117.701L34.1076 117.722L34.2541 116.51ZM33.7258 119.432L33.8984 119.453L33.7519 120.664L33.5793 120.643L33.7258 119.432ZM33.5426 122.395L33.37 122.374L33.2235 123.586L33.3961 123.607L33.5426 122.395ZM33.0142 125.316L33.1868 125.337L33.0403 126.549L32.8677 126.528L33.0142 125.316ZM32.831 128.28L32.6584 128.259L32.5119 129.47L32.6845 129.491L32.831 128.28Z" fill="#A587FF"/>
<path d="M135.253 7.19434H200.272C201.04 7.19434 201.663 7.8188 201.663 8.58911V64.0312C201.663 64.8015 201.04 65.426 200.272 65.426H135.253C134.485 65.426 133.863 64.8015 133.863 64.0312V8.58911C133.863 7.8188 134.485 7.19434 135.253 7.19434Z" fill="url(#paint16_linear_10_1271)"/>
<path fill-rule="evenodd" clip-rule="evenodd" d="M139.078 23.2341H147.77V31.9514H139.078V23.2341ZM139.078 37.1818H147.77V45.8991H139.078V37.1818ZM163.938 23.2341H155.246V31.9514H163.938V23.2341ZM155.246 37.1818H163.938V45.8991H155.246V37.1818ZM180.28 23.2341H171.587V31.9514H180.28V23.2341ZM187.755 23.2341H196.447V31.9514H187.755V23.2341ZM196.447 37.1818H187.755V45.8991H196.447V37.1818ZM139.078 51.1295H147.77V59.8468H139.078V51.1295ZM163.938 51.1295H155.246V59.8468H163.938V51.1295ZM171.587 51.1295H180.28V59.8468H171.587V51.1295ZM196.447 51.1295H187.755V59.8468H196.447V51.1295Z" fill="#77D0E6"/>
<path d="M171.587 37.1819H180.28V45.8992H171.587V37.1819Z" fill="url(#paint17_linear_10_1271)"/>
<path d="M135.253 7.19434H200.272C201.04 7.19434 201.663 7.8188 201.663 8.58911V18.0605H133.863V8.58911C133.863 7.8188 134.485 7.19434 135.253 7.19434Z" fill="url(#paint18_linear_10_1271)"/>
<path d="M217.719 135.53C218.112 134.83 218.514 134.235 218.923 133.746C219.538 133.012 219.756 133.275 219.948 133.609C220.141 133.944 220.573 134.695 220.923 135.302C221.272 135.909 221.123 136.084 220.014 136.629C218.906 137.173 218.719 137.15 217.699 137.97C216.679 138.789 214.402 140.064 213.456 139.561C212.51 139.058 213.913 137.815 215.192 136.822C216.045 136.16 216.888 135.73 217.719 135.53Z" fill="url(#paint19_linear_10_1271)"/>
<path d="M218.208 130.585L220.078 133.833L219.533 134.516C218.544 135.756 217.092 136.537 215.514 136.677L217.019 135.31L215.276 132.282L218.208 130.585Z" fill="#F4B696"/>
<path d="M215.351 134.108L202.865 114.464L206.23 90.6599L210.807 114.04L219.938 131.835L215.351 134.108Z" fill="#241F4A"/>
<path d="M201.035 137.063C201.724 136.654 202.368 136.341 202.967 136.122C203.865 135.795 203.923 136.131 203.923 136.518C203.923 136.904 203.923 137.772 203.923 138.472C203.923 139.173 203.706 139.25 202.475 139.166C201.243 139.082 201.093 138.968 199.801 139.166C198.509 139.364 195.902 139.326 195.334 138.417C194.765 137.507 196.599 137.133 198.202 136.916C199.271 136.77 200.215 136.819 201.035 137.063Z" fill="url(#paint20_linear_10_1271)"/>
<path d="M203.923 133.026V136.777L203.111 137.095C201.636 137.673 199.989 137.621 198.553 136.951L200.538 136.522V133.026H203.923Z" fill="#F4B696"/>
<path d="M177.271 47.4275L175.757 45.734C176.013 44.4824 175.729 43.5594 174.906 42.9652L174.463 43.8565C173.657 43.2623 172.973 42.5968 172.412 41.8601C171.569 40.7551 169.882 43.2142 170.37 45.0104C170.859 46.8067 172.703 47.2479 173.747 48.2628C173.914 48.425 174.509 48.9526 175.532 49.8454L177.271 47.4275Z" fill="#F4B696"/>
<path d="M200.739 55.3278L200.098 51.4322C198.173 51.7234 197.114 51.1466 196.923 49.7018C196.731 48.257 196.625 47.39 196.605 47.1008L195.54 46.7554L196.923 44.9681L197.661 41.52C199.424 40.8682 201.355 41.5373 203.452 43.5272C206.598 46.512 205.027 53.2682 204.609 54.887C204.331 55.9662 203.041 56.1131 200.739 55.3278Z" fill="#F4B696"/>
<path d="M204.966 135.23H199.081L191.581 84.2484L206.856 84.1736C207.216 86.9712 207.157 89.8069 206.681 92.587L203.164 113.164L204.966 135.23Z" fill="url(#paint21_linear_10_1271)"/>
<path d="M191.581 84.2484L194.029 65.1183C192.911 63.0695 192.632 60.8088 193.191 58.3361C193.634 56.9095 194.574 56.1962 196.009 56.1962C198.162 56.1962 204.226 52.8572 205.541 52.8572C207.274 53.4917 207.988 55.8562 207.684 59.9509C207.379 64.0455 207.112 72.1607 206.881 84.2964L191.581 84.2484Z" fill="url(#paint22_linear_10_1271)"/>
<path d="M200.822 61.1853L193.232 63.1056C192.981 62.2999 192.856 61.3145 192.856 60.1494C192.856 58.9843 195.511 59.3296 200.822 61.1853Z" fill="#211D41"/>
<path d="M202.873 61.3526L186.352 60.4686C185.565 60.4265 184.823 60.088 184.274 59.521L173.903 48.809L176.906 46.5762L186.122 54.3221C198.671 53.3682 205.059 52.8912 205.285 52.8912C205.512 52.8912 205.512 53.3682 205.285 54.3221L202.873 61.3526Z" fill="url(#paint23_linear_10_1271)"/>
<path d="M196.159 41.0956C195.299 42.5677 196.449 43.8891 199.61 45.0595C204.351 46.8152 200.099 47.8778 202.17 50.7898C204.241 53.7018 199.447 58.2177 203.164 62.3661C205.642 65.1317 206.86 66.7877 206.818 67.3341C208.773 66.4749 209.909 64.6612 210.226 61.8929C210.703 57.7404 206.615 53.5144 207.189 49.7794C207.763 46.0444 208.038 42.4832 203.575 40.2158C200.6 38.7043 198.128 38.9975 196.159 41.0956Z" fill="url(#paint24_linear_10_1271)"/>
<path fill-rule="evenodd" clip-rule="evenodd" d="M199.391 88.9662L199.565 88.9682L199.578 87.7478L199.405 87.7458L199.391 88.9662ZM199.532 91.9319L199.358 91.9299L199.371 90.7095L199.545 90.7115L199.532 91.9319ZM199.324 94.8936L199.498 94.8956L199.512 93.6752L199.338 93.6732L199.324 94.8936ZM199.465 97.8593L199.291 97.8573L199.305 96.6369L199.479 96.6389L199.465 97.8593ZM199.258 100.821L199.432 100.823L199.446 99.6026L199.272 99.6006L199.258 100.821ZM199.399 103.787L199.225 103.785L199.239 102.564L199.412 102.566L199.399 103.787ZM199.192 106.748L199.365 106.75L199.379 105.53L199.205 105.528L199.192 106.748ZM199.332 109.714L199.158 109.712L199.172 108.492L199.346 108.494L199.332 109.714ZM199.306 112.677L199.479 112.658L199.347 111.445L199.174 111.464L199.306 112.677ZM199.8 115.605L199.627 115.624L199.495 114.411L199.668 114.392L199.8 115.605ZM199.948 118.57L200.121 118.551L199.989 117.338L199.816 117.357L199.948 118.57ZM200.442 121.498L200.269 121.516L200.137 120.303L200.31 120.284L200.442 121.498ZM200.59 124.463L200.763 124.444L200.631 123.231L200.458 123.25L200.59 124.463ZM201.084 127.39L200.911 127.409L200.779 126.196L200.952 126.177L201.084 127.39ZM201.232 130.355L201.405 130.337L201.273 129.123L201.1 129.142L201.232 130.355ZM201.553 133.302L201.726 133.283L201.594 132.07L201.421 132.089L201.553 133.302Z" fill="#A587FF"/>
<defs>
<linearGradient id="paint0_linear_10_1271" x1="34.3985" y1="17.9016" x2="34.3985" y2="54.7542" gradientUnits="userSpaceOnUse">
<stop stop-color="#D0F6FF"/>
<stop offset="1" stop-color="#8BE2F7"/>
</linearGradient>
<linearGradient id="paint1_linear_10_1271" x1="-32.1378" y1="127.411" x2="-32.1378" y2="143.957" gradientUnits="userSpaceOnUse">
<stop stop-color="#D0F6FF"/>
<stop offset="1" stop-color="#8BE2F7"/>
</linearGradient>
<linearGradient id="paint2_linear_10_1271" x1="113.522" y1="7.14819" x2="113.522" y2="24.0577" gradientUnits="userSpaceOnUse">
<stop stop-color="#FF9485"/>
<stop offset="1" stop-color="#FF676E"/>
</linearGradient>
<linearGradient id="paint3_linear_10_1271" x1="9.54596" y1="29.2023" x2="36.0338" y2="50.911" gradientUnits="userSpaceOnUse">
<stop stop-color="#6EAE7C"/>
<stop offset="1" stop-color="#0F575D"/>
</linearGradient>
<linearGradient id="paint4_linear_10_1271" x1="30.9861" y1="14.2809" x2="45.1123" y2="20.501" gradientUnits="userSpaceOnUse">
<stop stop-color="#CFE49F"/>
<stop offset="1" stop-color="#A9D386"/>
</linearGradient>
<linearGradient id="paint5_linear_10_1271" x1="24.4747" y1="34.0334" x2="29.454" y2="48.4968" gradientUnits="userSpaceOnUse">
<stop stop-color="#77D791"/>
<stop offset="1" stop-color="#4FA67E"/>
</linearGradient>
<linearGradient id="paint6_linear_10_1271" x1="192.15" y1="154.568" x2="192.919" y2="55.323" gradientUnits="userSpaceOnUse">
<stop stop-color="#2B3389"/>
<stop offset="1" stop-color="#444FB7"/>
</linearGradient>
<linearGradient id="paint7_linear_10_1271" x1="55.6767" y1="67.1233" x2="87.2132" y2="79.1155" gradientUnits="userSpaceOnUse">
<stop stop-color="#0F1752"/>
<stop offset="1" stop-color="#272884"/>
</linearGradient>
<linearGradient id="paint8_linear_10_1271" x1="146.379" y1="93.4495" x2="146.379" y2="138.256" gradientUnits="userSpaceOnUse">
<stop stop-color="#FF9485"/>
<stop offset="1" stop-color="#FF676E"/>
</linearGradient>
<linearGradient id="paint9_linear_10_1271" x1="55.3101" y1="29.2423" x2="56.1971" y2="46.1561" gradientUnits="userSpaceOnUse">
<stop stop-color="#0F1752"/>
<stop offset="1" stop-color="#272884"/>
</linearGradient>
<linearGradient id="paint10_linear_10_1271" x1="41.8972" y1="77.2795" x2="41.8972" y2="116.757" gradientUnits="userSpaceOnUse">
<stop stop-color="#4DBCFA"/>
<stop offset="1" stop-color="#1486DB"/>
</linearGradient>
<linearGradient id="paint11_linear_10_1271" x1="52.4593" y1="95.4395" x2="52.4593" y2="110.281" gradientUnits="userSpaceOnUse">
<stop stop-color="#4DBCFA"/>
<stop offset="1" stop-color="#1486DB"/>
</linearGradient>
<linearGradient id="paint12_linear_10_1271" x1="29.5559" y1="133.937" x2="29.5559" y2="138.029" gradientUnits="userSpaceOnUse">
<stop stop-color="#1D2A78"/>
<stop offset="1" stop-color="#12033B"/>
</linearGradient>
<linearGradient id="paint13_linear_10_1271" x1="0.238281" y1="132.186" x2="0.238281" y2="139.98" gradientUnits="userSpaceOnUse">
<stop stop-color="#1D2A78"/>
<stop offset="1" stop-color="#12033B"/>
</linearGradient>
<linearGradient id="paint14_linear_10_1271" x1="31.2878" y1="53.1724" x2="31.2878" y2="65.3269" gradientUnits="userSpaceOnUse">
<stop stop-color="#1D2A78"/>
<stop offset="1" stop-color="#12033B"/>
</linearGradient>
<linearGradient id="paint15_linear_10_1271" x1="2.8937" y1="75.0978" x2="2.8937" y2="165.626" gradientUnits="userSpaceOnUse">
<stop stop-color="#1533B6"/>
<stop offset="1" stop-color="#356BE9"/>
</linearGradient>
<linearGradient id="paint16_linear_10_1271" x1="119.016" y1="11.4245" x2="119.016" y2="95.1578" gradientUnits="userSpaceOnUse">
<stop stop-color="#D0F6FF"/>
<stop offset="1" stop-color="#8BE2F7"/>
</linearGradient>
<linearGradient id="paint17_linear_10_1271" x1="171.587" y1="37.1819" x2="171.587" y2="45.8992" gradientUnits="userSpaceOnUse">
<stop stop-color="#FF9485"/>
<stop offset="1" stop-color="#FF676E"/>
</linearGradient>
<linearGradient id="paint18_linear_10_1271" x1="133.863" y1="7.19434" x2="133.863" y2="18.0605" gradientUnits="userSpaceOnUse">
<stop stop-color="#FF9485"/>
<stop offset="1" stop-color="#FF676E"/>
</linearGradient>
<linearGradient id="paint19_linear_10_1271" x1="213.146" y1="133.276" x2="213.146" y2="139.675" gradientUnits="userSpaceOnUse">
<stop stop-color="#1D2A78"/>
<stop offset="1" stop-color="#12033B"/>
</linearGradient>
<linearGradient id="paint20_linear_10_1271" x1="195.228" y1="135.99" x2="195.228" y2="139.264" gradientUnits="userSpaceOnUse">
<stop stop-color="#1D2A78"/>
<stop offset="1" stop-color="#12033B"/>
</linearGradient>
<linearGradient id="paint21_linear_10_1271" x1="185.808" y1="57.1385" x2="185.808" y2="179.478" gradientUnits="userSpaceOnUse">
<stop stop-color="#1533B6"/>
<stop offset="1" stop-color="#356BE9"/>
</linearGradient>
<linearGradient id="paint22_linear_10_1271" x1="191.581" y1="52.8572" x2="191.581" y2="84.2964" gradientUnits="userSpaceOnUse">
<stop stop-color="#FF9485"/>
<stop offset="1" stop-color="#FF676E"/>
</linearGradient>
<linearGradient id="paint23_linear_10_1271" x1="173.903" y1="46.5762" x2="173.903" y2="61.3526" gradientUnits="userSpaceOnUse">
<stop stop-color="#FF9485"/>
<stop offset="1" stop-color="#FF676E"/>
</linearGradient>
<linearGradient id="paint24_linear_10_1271" x1="195.883" y1="39.2664" x2="195.883" y2="67.3341" gradientUnits="userSpaceOnUse">
<stop stop-color="#1D2A78"/>
<stop offset="1" stop-color="#12033B"/>
</linearGradient>
</defs>
</svg>
